# xmcd CD database file
#
# Track frame offsets:
#	150
#	20580
#	39260
#	62947
#	84825
#	103505
#	122222
#	141607
#	159150
#	176765
#	198157
#	222867
#
# Disc length: 3201 seconds
#
# Revision: 0
# Processed by: cddbd v1.5.1PL0 Copyright (c) Steve Scherf et al.
# Submitted via: CDex 1.51
#
DISCID=a20c7f0c
DTITLE=Di Gi Charat - Di Gi Charat The Best? すぺしゃるエディション (Disc.2)
DYEAR=2004
DGENRE=Anime
TTITLE0=無限大∞ソリューション
TTITLE1=パワフルサマー
TTITLE2=Voice of Heart
TTITLE3=さくら さくら
TTITLE4=Dacin'on the Radio
TTITLE5=Welcome！ X'mas version
TTITLE6=READY→⇒→GO！
TTITLE7=Precious Moment
TTITLE8=Run&Gun!!
TTITLE9=ONLY★YOU〜君を守りたい〜
TTITLE10=My only true wish
TTITLE11=Knighthood〜世界で一番の夢を〜
EXTD=YEAR: 2004
EXTT0=
EXTT1=
EXTT2=
EXTT3=
EXTT4=
EXTT5=
EXTT6=
EXTT7=
EXTT8=
EXTT9=
EXTT10=
EXTT11=
PLAYORDER=
